<svg xmlns="http://www.w3.org/2000/svg" viewBox="0 0 400 300" role="img" aria-label="Bulgarian Split Squat form diagram">
  <rect width="400" height="300" fill="#ffffff"/>
  <text x="200" y="30" font-family="ui-sans-serif, system-ui, -apple-system, Segoe UI, Roboto, Arial" font-size="17" font-weight="700" fill="#1f2430" text-anchor="middle">Bulgarian Split Squat</text>
  <line x1="40" y1="268" x2="360" y2="268" stroke="#d7dce4" stroke-width="4" stroke-linecap="round"/>
  <line x1="250" y1="235" x2="350" y2="235" stroke="#c4ccd8" stroke-width="7" stroke-linecap="round"/>
  <line x1="300" y1="235" x2="300" y2="261" stroke="#c4ccd8" stroke-width="6" stroke-linecap="round"/>
  <line x1="185.0" y1="195.0" x2="190.9" y2="139.3" stroke="#aeb6c2" stroke-width="5" stroke-linecap="round" stroke-dasharray="2 7"/>
  <line x1="190.9" y1="139.3" x2="188.8" y2="109.4" stroke="#aeb6c2" stroke-width="5" stroke-linecap="round" stroke-dasharray="2 7"/>
  <line x1="188.8" y1="109.4" x2="186.8" y2="81.4" stroke="#aeb6c2" stroke-width="5" stroke-linecap="round" stroke-dasharray="2 7"/>
  <line x1="190.9" y1="139.3" x2="192.9" y2="109.4" stroke="#aeb6c2" stroke-width="5" stroke-linecap="round" stroke-dasharray="2 7"/>
  <line x1="192.9" y1="109.4" x2="194.9" y2="81.4" stroke="#aeb6c2" stroke-width="5" stroke-linecap="round" stroke-dasharray="2 7"/>
  <line x1="185.0" y1="195.0" x2="174.5" y2="231.5" stroke="#aeb6c2" stroke-width="5" stroke-linecap="round" stroke-dasharray="2 7"/>
  <line x1="174.5" y1="231.5" x2="164.1" y2="268.1" stroke="#aeb6c2" stroke-width="5" stroke-linecap="round" stroke-dasharray="2 7"/>
  <line x1="185.0" y1="195.0" x2="153.9" y2="216.8" stroke="#aeb6c2" stroke-width="5" stroke-linecap="round" stroke-dasharray="2 7"/>
  <line x1="153.9" y1="216.8" x2="118.2" y2="203.8" stroke="#aeb6c2" stroke-width="5" stroke-linecap="round" stroke-dasharray="2 7"/>
  <circle cx="193.6" cy="113.4" r="14" fill="#ffffff" stroke="#aeb6c2" stroke-width="5" stroke-dasharray="2 7"/>
  <line x1="185.0" y1="222.0" x2="196.6" y2="167.2" stroke="#22c1a4" stroke-width="6" stroke-linecap="round"/>
  <line x1="196.6" y1="167.2" x2="194.6" y2="137.3" stroke="#22c1a4" stroke-width="6" stroke-linecap="round"/>
  <line x1="194.6" y1="137.3" x2="192.6" y2="109.4" stroke="#22c1a4" stroke-width="6" stroke-linecap="round"/>
  <line x1="196.6" y1="167.2" x2="198.7" y2="137.3" stroke="#22c1a4" stroke-width="6" stroke-linecap="round"/>
  <line x1="198.7" y1="137.3" x2="200.7" y2="109.4" stroke="#22c1a4" stroke-width="6" stroke-linecap="round"/>
  <line x1="185.0" y1="222.0" x2="158.6" y2="249.3" stroke="#22c1a4" stroke-width="6" stroke-linecap="round"/>
  <line x1="158.6" y1="249.3" x2="157.3" y2="287.3" stroke="#22c1a4" stroke-width="6" stroke-linecap="round"/>
  <line x1="185.0" y1="222.0" x2="152.1" y2="241.0" stroke="#22c1a4" stroke-width="6" stroke-linecap="round"/>
  <line x1="152.1" y1="241.0" x2="119.2" y2="222.0" stroke="#22c1a4" stroke-width="6" stroke-linecap="round"/>
  <circle cx="202.0" cy="141.8" r="14" fill="#ffffff" stroke="#22c1a4" stroke-width="6"/>
  <g>
  <defs><marker id="ah" markerWidth="10" markerHeight="10" refX="6" refY="3" orient="auto"><path d="M0,0 L6,3 L0,6 Z" fill="#22c1a4"/></marker></defs>
  <path d="M165,175 Q183,190 165,205" fill="none" stroke="#22c1a4" stroke-width="4" stroke-linecap="round" marker-end="url(#ah)"/>
</g>
  <g>
  <rect x="40.0" y="137.0" rx="9" ry="9" width="84.0" height="22" fill="#eef1f5" stroke="#dde2ea" stroke-width="1.5"/>
  <text x="82.0" y="153.0" font-family="ui-sans-serif, system-ui, -apple-system, Segoe UI, Roboto, Arial" font-size="12.5" fill="#586073" text-anchor="middle">Torso tall</text>
</g>
  <g>
  <rect x="250.0" y="242.0" rx="9" ry="9" width="103.8" height="22" fill="#eef1f5" stroke="#dde2ea" stroke-width="1.5"/>
  <text x="301.9" y="258.0" font-family="ui-sans-serif, system-ui, -apple-system, Segoe UI, Roboto, Arial" font-size="12.5" fill="#586073" text-anchor="middle">Drop straight</text>
</g>
</svg>
