<svg xmlns="http://www.w3.org/2000/svg" viewBox="0 0 400 300" role="img" aria-label="Cable Lateral Raise form diagram">
  <rect width="400" height="300" fill="#ffffff"/>
  <text x="200" y="30" font-family="ui-sans-serif, system-ui, -apple-system, Segoe UI, Roboto, Arial" font-size="17" font-weight="700" fill="#1f2430" text-anchor="middle">Cable Lateral Raise</text>
  <line x1="40" y1="268" x2="360" y2="268" stroke="#d7dce4" stroke-width="4" stroke-linecap="round"/>
  
  <line x1="200.0" y1="196.0" x2="200.0" y2="140.0" stroke="#aeb6c2" stroke-width="5" stroke-linecap="round" stroke-dasharray="2 7"/>
  <line x1="200.0" y1="140.0" x2="199.0" y2="110.0" stroke="#aeb6c2" stroke-width="5" stroke-linecap="round" stroke-dasharray="2 7"/>
  <line x1="199.0" y1="110.0" x2="198.0" y2="82.0" stroke="#aeb6c2" stroke-width="5" stroke-linecap="round" stroke-dasharray="2 7"/>
  <line x1="200.0" y1="140.0" x2="202.6" y2="110.1" stroke="#aeb6c2" stroke-width="5" stroke-linecap="round" stroke-dasharray="2 7"/>
  <line x1="202.6" y1="110.1" x2="205.1" y2="82.2" stroke="#aeb6c2" stroke-width="5" stroke-linecap="round" stroke-dasharray="2 7"/>
  <line x1="200.0" y1="196.0" x2="198.7" y2="234.0" stroke="#aeb6c2" stroke-width="5" stroke-linecap="round" stroke-dasharray="2 7"/>
  <line x1="198.7" y1="234.0" x2="197.3" y2="272.0" stroke="#aeb6c2" stroke-width="5" stroke-linecap="round" stroke-dasharray="2 7"/>
  <line x1="200.0" y1="196.0" x2="201.3" y2="234.0" stroke="#aeb6c2" stroke-width="5" stroke-linecap="round" stroke-dasharray="2 7"/>
  <line x1="201.3" y1="234.0" x2="202.7" y2="272.0" stroke="#aeb6c2" stroke-width="5" stroke-linecap="round" stroke-dasharray="2 7"/>
  <circle cx="200.0" cy="114.0" r="14" fill="#ffffff" stroke="#aeb6c2" stroke-width="5" stroke-dasharray="2 7"/>
  <line x1="200.0" y1="196.0" x2="200.0" y2="140.0" stroke="#22c1a4" stroke-width="6" stroke-linecap="round"/>
  <line x1="200.0" y1="140.0" x2="199.0" y2="110.0" stroke="#22c1a4" stroke-width="6" stroke-linecap="round"/>
  <line x1="199.0" y1="110.0" x2="198.0" y2="82.0" stroke="#22c1a4" stroke-width="6" stroke-linecap="round"/>
  <line x1="200.0" y1="140.0" x2="228.2" y2="129.7" stroke="#22c1a4" stroke-width="6" stroke-linecap="round"/>
  <line x1="228.2" y1="129.7" x2="254.5" y2="120.2" stroke="#22c1a4" stroke-width="6" stroke-linecap="round"/>
  <line x1="200.0" y1="196.0" x2="198.7" y2="234.0" stroke="#22c1a4" stroke-width="6" stroke-linecap="round"/>
  <line x1="198.7" y1="234.0" x2="197.3" y2="272.0" stroke="#22c1a4" stroke-width="6" stroke-linecap="round"/>
  <line x1="200.0" y1="196.0" x2="201.3" y2="234.0" stroke="#22c1a4" stroke-width="6" stroke-linecap="round"/>
  <line x1="201.3" y1="234.0" x2="202.7" y2="272.0" stroke="#22c1a4" stroke-width="6" stroke-linecap="round"/>
  <circle cx="200.0" cy="114.0" r="14" fill="#ffffff" stroke="#22c1a4" stroke-width="6"/>
  <circle cx="198.0" cy="82.0" r="7" fill="#22c1a4" stroke="#22c1a4" stroke-width="0"/>
  <circle cx="254.5" cy="120.2" r="7" fill="#22c1a4" stroke="#22c1a4" stroke-width="0"/>
  <g>
  <defs><marker id="ah" markerWidth="10" markerHeight="10" refX="6" refY="3" orient="auto"><path d="M0,0 L6,3 L0,6 Z" fill="#22c1a4"/></marker></defs>
  <path d="M205.05503307936416,82.22070751067875 Q247.77860254247344,101.19176959889496 254.50217200558268,120.16283168711118" fill="none" stroke="#22c1a4" stroke-width="4" stroke-linecap="round" marker-end="url(#ah)"/>
</g>
  <g>
  <rect x="250.0" y="137.0" rx="9" ry="9" width="110.4" height="22" fill="#eef1f5" stroke="#dde2ea" stroke-width="1.5"/>
  <text x="305.2" y="153.0" font-family="ui-sans-serif, system-ui, -apple-system, Segoe UI, Roboto, Arial" font-size="12.5" fill="#586073" text-anchor="middle">Lead the elbow</text>
</g>
  <g>
  <rect x="40.0" y="207.0" rx="9" ry="9" width="90.6" height="22" fill="#eef1f5" stroke="#dde2ea" stroke-width="1.5"/>
  <text x="85.3" y="223.0" font-family="ui-sans-serif, system-ui, -apple-system, Segoe UI, Roboto, Arial" font-size="12.5" fill="#586073" text-anchor="middle">To shoulder</text>
</g>
</svg>
