<svg xmlns="http://www.w3.org/2000/svg" viewBox="0 0 400 300" role="img" aria-label="Cable Crunch form diagram">
  <rect width="400" height="300" fill="#ffffff"/>
  <text x="200" y="30" font-family="ui-sans-serif, system-ui, -apple-system, Segoe UI, Roboto, Arial" font-size="17" font-weight="700" fill="#1f2430" text-anchor="middle">Cable Crunch</text>
  <line x1="40" y1="268" x2="360" y2="268" stroke="#d7dce4" stroke-width="4" stroke-linecap="round"/>
  
  <line x1="200.0" y1="230.0" x2="192.2" y2="174.5" stroke="#aeb6c2" stroke-width="5" stroke-linecap="round" stroke-dasharray="2 7"/>
  <line x1="192.2" y1="174.5" x2="196.4" y2="144.8" stroke="#aeb6c2" stroke-width="5" stroke-linecap="round" stroke-dasharray="2 7"/>
  <line x1="196.4" y1="144.8" x2="206.0" y2="118.5" stroke="#aeb6c2" stroke-width="5" stroke-linecap="round" stroke-dasharray="2 7"/>
  <line x1="192.2" y1="174.5" x2="200.5" y2="145.7" stroke="#aeb6c2" stroke-width="5" stroke-linecap="round" stroke-dasharray="2 7"/>
  <line x1="200.5" y1="145.7" x2="212.3" y2="120.3" stroke="#aeb6c2" stroke-width="5" stroke-linecap="round" stroke-dasharray="2 7"/>
  <line x1="200.0" y1="230.0" x2="167.1" y2="211.0" stroke="#aeb6c2" stroke-width="5" stroke-linecap="round" stroke-dasharray="2 7"/>
  <line x1="167.1" y1="211.0" x2="129.2" y2="207.7" stroke="#aeb6c2" stroke-width="5" stroke-linecap="round" stroke-dasharray="2 7"/>
  <line x1="200.0" y1="230.0" x2="232.9" y2="211.0" stroke="#aeb6c2" stroke-width="5" stroke-linecap="round" stroke-dasharray="2 7"/>
  <line x1="232.9" y1="211.0" x2="195.1" y2="207.7" stroke="#aeb6c2" stroke-width="5" stroke-linecap="round" stroke-dasharray="2 7"/>
  <circle cx="188.6" cy="148.8" r="14" fill="#ffffff" stroke="#aeb6c2" stroke-width="5" stroke-dasharray="2 7"/>
  <line x1="200.0" y1="230.0" x2="236.0" y2="187.1" stroke="#22c1a4" stroke-width="6" stroke-linecap="round"/>
  <line x1="236.0" y1="187.1" x2="240.2" y2="157.4" stroke="#22c1a4" stroke-width="6" stroke-linecap="round"/>
  <line x1="240.2" y1="157.4" x2="249.7" y2="131.1" stroke="#22c1a4" stroke-width="6" stroke-linecap="round"/>
  <line x1="236.0" y1="187.1" x2="244.3" y2="158.3" stroke="#22c1a4" stroke-width="6" stroke-linecap="round"/>
  <line x1="244.3" y1="158.3" x2="256.1" y2="132.9" stroke="#22c1a4" stroke-width="6" stroke-linecap="round"/>
  <line x1="200.0" y1="230.0" x2="167.1" y2="211.0" stroke="#22c1a4" stroke-width="6" stroke-linecap="round"/>
  <line x1="167.1" y1="211.0" x2="129.2" y2="207.7" stroke="#22c1a4" stroke-width="6" stroke-linecap="round"/>
  <line x1="200.0" y1="230.0" x2="232.9" y2="211.0" stroke="#22c1a4" stroke-width="6" stroke-linecap="round"/>
  <line x1="232.9" y1="211.0" x2="195.1" y2="207.7" stroke="#22c1a4" stroke-width="6" stroke-linecap="round"/>
  <circle cx="252.7" cy="167.2" r="14" fill="#ffffff" stroke="#22c1a4" stroke-width="6"/>
  <g>
  <defs><marker id="ah" markerWidth="10" markerHeight="10" refX="6" refY="3" orient="auto"><path d="M0,0 L6,3 L0,6 Z" fill="#22c1a4"/></marker></defs>
  <path d="M200,150 Q230.5,167.5 225,185" fill="none" stroke="#22c1a4" stroke-width="4" stroke-linecap="round" marker-end="url(#ah)"/>
</g>
  <g>
  <rect x="40.0" y="117.0" rx="9" ry="9" width="110.4" height="22" fill="#eef1f5" stroke="#dde2ea" stroke-width="1.5"/>
  <text x="95.2" y="133.0" font-family="ui-sans-serif, system-ui, -apple-system, Segoe UI, Roboto, Arial" font-size="12.5" fill="#586073" text-anchor="middle">Crunch the abs</text>
</g>
  <g>
  <rect x="255.0" y="202.0" rx="9" ry="9" width="90.6" height="22" fill="#eef1f5" stroke="#dde2ea" stroke-width="1.5"/>
  <text x="300.3" y="218.0" font-family="ui-sans-serif, system-ui, -apple-system, Segoe UI, Roboto, Arial" font-size="12.5" fill="#586073" text-anchor="middle">Round spine</text>
</g>
</svg>
