<svg xmlns="http://www.w3.org/2000/svg" viewBox="0 0 400 300" role="img" aria-label="Flat DB Press form diagram">
  <rect width="400" height="300" fill="#ffffff"/>
  <text x="200" y="30" font-family="ui-sans-serif, system-ui, -apple-system, Segoe UI, Roboto, Arial" font-size="17" font-weight="700" fill="#1f2430" text-anchor="middle">Flat DB Press</text>
  <line x1="40" y1="268" x2="360" y2="268" stroke="#d7dce4" stroke-width="4" stroke-linecap="round"/>
  <line x1="140" y1="215" x2="280" y2="215" stroke="#c4ccd8" stroke-width="7" stroke-linecap="round"/>
  <line x1="210" y1="215" x2="210" y2="241" stroke="#c4ccd8" stroke-width="6" stroke-linecap="round"/>
  <line x1="200.0" y1="205.0" x2="256.0" y2="203.0" stroke="#aeb6c2" stroke-width="5" stroke-linecap="round" stroke-dasharray="2 7"/>
  <line x1="256.0" y1="203.0" x2="256.0" y2="173.0" stroke="#aeb6c2" stroke-width="5" stroke-linecap="round" stroke-dasharray="2 7"/>
  <line x1="256.0" y1="173.0" x2="256.0" y2="145.0" stroke="#aeb6c2" stroke-width="5" stroke-linecap="round" stroke-dasharray="2 7"/>
  <line x1="256.0" y1="203.0" x2="256.0" y2="173.0" stroke="#aeb6c2" stroke-width="5" stroke-linecap="round" stroke-dasharray="2 7"/>
  <line x1="256.0" y1="173.0" x2="256.0" y2="145.0" stroke="#aeb6c2" stroke-width="5" stroke-linecap="round" stroke-dasharray="2 7"/>
  <line x1="200.0" y1="205.0" x2="167.1" y2="186.0" stroke="#aeb6c2" stroke-width="5" stroke-linecap="round" stroke-dasharray="2 7"/>
  <line x1="167.1" y1="186.0" x2="134.2" y2="205.0" stroke="#aeb6c2" stroke-width="5" stroke-linecap="round" stroke-dasharray="2 7"/>
  <line x1="200.0" y1="205.0" x2="167.1" y2="186.0" stroke="#aeb6c2" stroke-width="5" stroke-linecap="round" stroke-dasharray="2 7"/>
  <line x1="167.1" y1="186.0" x2="134.2" y2="205.0" stroke="#aeb6c2" stroke-width="5" stroke-linecap="round" stroke-dasharray="2 7"/>
  <circle cx="282.0" cy="202.1" r="14" fill="#ffffff" stroke="#aeb6c2" stroke-width="5" stroke-dasharray="2 7"/>
  <line x1="200.0" y1="205.0" x2="256.0" y2="203.0" stroke="#22c1a4" stroke-width="6" stroke-linecap="round"/>
  <line x1="256.0" y1="203.0" x2="256.0" y2="173.0" stroke="#22c1a4" stroke-width="6" stroke-linecap="round"/>
  <line x1="256.0" y1="173.0" x2="256.0" y2="145.0" stroke="#22c1a4" stroke-width="6" stroke-linecap="round"/>
  <line x1="256.0" y1="203.0" x2="256.0" y2="173.0" stroke="#22c1a4" stroke-width="6" stroke-linecap="round"/>
  <line x1="256.0" y1="173.0" x2="256.0" y2="145.0" stroke="#22c1a4" stroke-width="6" stroke-linecap="round"/>
  <line x1="200.0" y1="205.0" x2="167.1" y2="186.0" stroke="#22c1a4" stroke-width="6" stroke-linecap="round"/>
  <line x1="167.1" y1="186.0" x2="134.2" y2="205.0" stroke="#22c1a4" stroke-width="6" stroke-linecap="round"/>
  <line x1="200.0" y1="205.0" x2="167.1" y2="186.0" stroke="#22c1a4" stroke-width="6" stroke-linecap="round"/>
  <line x1="167.1" y1="186.0" x2="134.2" y2="205.0" stroke="#22c1a4" stroke-width="6" stroke-linecap="round"/>
  <circle cx="282.0" cy="202.1" r="14" fill="#ffffff" stroke="#22c1a4" stroke-width="6"/>
  <g>
  <defs><marker id="ah" markerWidth="10" markerHeight="10" refX="6" refY="3" orient="auto"><path d="M0,0 L6,3 L0,6 Z" fill="#22c1a4"/></marker></defs>
  <path d="M200,150 Q218,130 200,110" fill="none" stroke="#22c1a4" stroke-width="4" stroke-linecap="round" marker-end="url(#ah)"/>
</g>
  <g>
  <rect x="60.0" y="117.0" rx="9" ry="9" width="103.8" height="22" fill="#eef1f5" stroke="#dde2ea" stroke-width="1.5"/>
  <text x="111.9" y="133.0" font-family="ui-sans-serif, system-ui, -apple-system, Segoe UI, Roboto, Arial" font-size="12.5" fill="#586073" text-anchor="middle">Blades pinned</text>
</g>
  <g>
  <rect x="250.0" y="87.0" rx="9" ry="9" width="84.0" height="22" fill="#eef1f5" stroke="#dde2ea" stroke-width="1.5"/>
  <text x="292.0" y="103.0" font-family="ui-sans-serif, system-ui, -apple-system, Segoe UI, Roboto, Arial" font-size="12.5" fill="#586073" text-anchor="middle">Full press</text>
</g>
</svg>
