<svg xmlns="http://www.w3.org/2000/svg" viewBox="0 0 400 300" role="img" aria-label="Incline DB Curl form diagram">
  <rect width="400" height="300" fill="#ffffff"/>
  <text x="200" y="30" font-family="ui-sans-serif, system-ui, -apple-system, Segoe UI, Roboto, Arial" font-size="17" font-weight="700" fill="#1f2430" text-anchor="middle">Incline DB Curl</text>
  <line x1="40" y1="268" x2="360" y2="268" stroke="#d7dce4" stroke-width="4" stroke-linecap="round"/>
  <line x1="150" y1="271" x2="270" y2="235" stroke="#c4ccd8" stroke-width="7" stroke-linecap="round"/>
  <line x1="210" y1="253" x2="210" y2="279" stroke="#c4ccd8" stroke-width="6" stroke-linecap="round"/>
  <line x1="205.0" y1="205.0" x2="251.4" y2="173.7" stroke="#aeb6c2" stroke-width="5" stroke-linecap="round" stroke-dasharray="2 7"/>
  <line x1="251.4" y1="173.7" x2="261.7" y2="145.5" stroke="#aeb6c2" stroke-width="5" stroke-linecap="round" stroke-dasharray="2 7"/>
  <line x1="261.7" y1="145.5" x2="271.3" y2="119.2" stroke="#aeb6c2" stroke-width="5" stroke-linecap="round" stroke-dasharray="2 7"/>
  <line x1="251.4" y1="173.7" x2="259.7" y2="144.8" stroke="#aeb6c2" stroke-width="5" stroke-linecap="round" stroke-dasharray="2 7"/>
  <line x1="259.7" y1="144.8" x2="267.4" y2="117.9" stroke="#aeb6c2" stroke-width="5" stroke-linecap="round" stroke-dasharray="2 7"/>
  <line x1="205.0" y1="205.0" x2="172.1" y2="224.0" stroke="#aeb6c2" stroke-width="5" stroke-linecap="round" stroke-dasharray="2 7"/>
  <line x1="172.1" y1="224.0" x2="134.1" y2="224.0" stroke="#aeb6c2" stroke-width="5" stroke-linecap="round" stroke-dasharray="2 7"/>
  <line x1="205.0" y1="205.0" x2="172.1" y2="224.0" stroke="#aeb6c2" stroke-width="5" stroke-linecap="round" stroke-dasharray="2 7"/>
  <line x1="172.1" y1="224.0" x2="134.1" y2="224.0" stroke="#aeb6c2" stroke-width="5" stroke-linecap="round" stroke-dasharray="2 7"/>
  <circle cx="273.0" cy="159.1" r="14" fill="#ffffff" stroke="#aeb6c2" stroke-width="5" stroke-dasharray="2 7"/>
  <line x1="205.0" y1="205.0" x2="251.4" y2="173.7" stroke="#22c1a4" stroke-width="6" stroke-linecap="round"/>
  <line x1="251.4" y1="173.7" x2="261.7" y2="145.5" stroke="#22c1a4" stroke-width="6" stroke-linecap="round"/>
  <line x1="261.7" y1="145.5" x2="240.2" y2="127.5" stroke="#22c1a4" stroke-width="6" stroke-linecap="round"/>
  <line x1="251.4" y1="173.7" x2="259.7" y2="144.8" stroke="#22c1a4" stroke-width="6" stroke-linecap="round"/>
  <line x1="259.7" y1="144.8" x2="237.0" y2="128.4" stroke="#22c1a4" stroke-width="6" stroke-linecap="round"/>
  <line x1="205.0" y1="205.0" x2="172.1" y2="224.0" stroke="#22c1a4" stroke-width="6" stroke-linecap="round"/>
  <line x1="172.1" y1="224.0" x2="134.1" y2="224.0" stroke="#22c1a4" stroke-width="6" stroke-linecap="round"/>
  <line x1="205.0" y1="205.0" x2="172.1" y2="224.0" stroke="#22c1a4" stroke-width="6" stroke-linecap="round"/>
  <line x1="172.1" y1="224.0" x2="134.1" y2="224.0" stroke="#22c1a4" stroke-width="6" stroke-linecap="round"/>
  <circle cx="273.0" cy="159.1" r="14" fill="#ffffff" stroke="#22c1a4" stroke-width="6"/>
  <circle cx="240.2" cy="127.5" r="7" fill="#22c1a4" stroke="#22c1a4" stroke-width="0"/>
  <circle cx="237.0" cy="128.4" r="7" fill="#22c1a4" stroke="#22c1a4" stroke-width="0"/>
  <g>
  <defs><marker id="ah" markerWidth="10" markerHeight="10" refX="6" refY="3" orient="auto"><path d="M0,0 L6,3 L0,6 Z" fill="#22c1a4"/></marker></defs>
  <path d="M240,245 Q253,210 230,175" fill="none" stroke="#22c1a4" stroke-width="4" stroke-linecap="round" marker-end="url(#ah)"/>
</g>
  <g>
  <rect x="40.0" y="117.0" rx="9" ry="9" width="110.4" height="22" fill="#eef1f5" stroke="#dde2ea" stroke-width="1.5"/>
  <text x="95.2" y="133.0" font-family="ui-sans-serif, system-ui, -apple-system, Segoe UI, Roboto, Arial" font-size="12.5" fill="#586073" text-anchor="middle">Arms hang back</text>
</g>
  <g>
  <rect x="250.0" y="237.0" rx="9" ry="9" width="97.2" height="22" fill="#eef1f5" stroke="#dde2ea" stroke-width="1.5"/>
  <text x="298.6" y="253.0" font-family="ui-sans-serif, system-ui, -apple-system, Segoe UI, Roboto, Arial" font-size="12.5" fill="#586073" text-anchor="middle">Full stretch</text>
</g>
</svg>
