<svg xmlns="http://www.w3.org/2000/svg" viewBox="0 0 400 300" role="img" aria-label="Lat Pulldown form diagram">
  <rect width="400" height="300" fill="#ffffff"/>
  <text x="200" y="30" font-family="ui-sans-serif, system-ui, -apple-system, Segoe UI, Roboto, Arial" font-size="17" font-weight="700" fill="#1f2430" text-anchor="middle">Lat Pulldown</text>
  <line x1="40" y1="268" x2="360" y2="268" stroke="#d7dce4" stroke-width="4" stroke-linecap="round"/>
  <line x1="160" y1="250" x2="240" y2="250" stroke="#c4ccd8" stroke-width="7" stroke-linecap="round"/>
  <line x1="200" y1="250" x2="200" y2="276" stroke="#c4ccd8" stroke-width="6" stroke-linecap="round"/>
  <line x1="200.0" y1="200.0" x2="192.2" y2="144.5" stroke="#aeb6c2" stroke-width="5" stroke-linecap="round" stroke-dasharray="2 7"/>
  <line x1="192.2" y1="144.5" x2="184.4" y2="115.6" stroke="#aeb6c2" stroke-width="5" stroke-linecap="round" stroke-dasharray="2 7"/>
  <line x1="184.4" y1="115.6" x2="178.6" y2="88.2" stroke="#aeb6c2" stroke-width="5" stroke-linecap="round" stroke-dasharray="2 7"/>
  <line x1="192.2" y1="144.5" x2="200.0" y2="115.6" stroke="#aeb6c2" stroke-width="5" stroke-linecap="round" stroke-dasharray="2 7"/>
  <line x1="200.0" y1="115.6" x2="205.8" y2="88.2" stroke="#aeb6c2" stroke-width="5" stroke-linecap="round" stroke-dasharray="2 7"/>
  <line x1="200.0" y1="200.0" x2="168.9" y2="221.8" stroke="#aeb6c2" stroke-width="5" stroke-linecap="round" stroke-dasharray="2 7"/>
  <line x1="168.9" y1="221.8" x2="136.0" y2="202.8" stroke="#aeb6c2" stroke-width="5" stroke-linecap="round" stroke-dasharray="2 7"/>
  <line x1="200.0" y1="200.0" x2="231.1" y2="221.8" stroke="#aeb6c2" stroke-width="5" stroke-linecap="round" stroke-dasharray="2 7"/>
  <line x1="231.1" y1="221.8" x2="198.2" y2="202.8" stroke="#aeb6c2" stroke-width="5" stroke-linecap="round" stroke-dasharray="2 7"/>
  <circle cx="188.6" cy="118.8" r="14" fill="#ffffff" stroke="#aeb6c2" stroke-width="5" stroke-dasharray="2 7"/>
  <line x1="200.0" y1="200.0" x2="192.2" y2="144.5" stroke="#22c1a4" stroke-width="6" stroke-linecap="round"/>
  <line x1="192.2" y1="144.5" x2="213.4" y2="123.3" stroke="#22c1a4" stroke-width="6" stroke-linecap="round"/>
  <line x1="213.4" y1="123.3" x2="239.7" y2="113.8" stroke="#22c1a4" stroke-width="6" stroke-linecap="round"/>
  <line x1="192.2" y1="144.5" x2="171.0" y2="123.3" stroke="#22c1a4" stroke-width="6" stroke-linecap="round"/>
  <line x1="171.0" y1="123.3" x2="144.7" y2="113.8" stroke="#22c1a4" stroke-width="6" stroke-linecap="round"/>
  <line x1="200.0" y1="200.0" x2="168.9" y2="221.8" stroke="#22c1a4" stroke-width="6" stroke-linecap="round"/>
  <line x1="168.9" y1="221.8" x2="136.0" y2="202.8" stroke="#22c1a4" stroke-width="6" stroke-linecap="round"/>
  <line x1="200.0" y1="200.0" x2="231.1" y2="221.8" stroke="#22c1a4" stroke-width="6" stroke-linecap="round"/>
  <line x1="231.1" y1="221.8" x2="198.2" y2="202.8" stroke="#22c1a4" stroke-width="6" stroke-linecap="round"/>
  <circle cx="188.6" cy="118.8" r="14" fill="#ffffff" stroke="#22c1a4" stroke-width="6"/>
  <g>
  <defs><marker id="ah" markerWidth="10" markerHeight="10" refX="6" refY="3" orient="auto"><path d="M0,0 L6,3 L0,6 Z" fill="#22c1a4"/></marker></defs>
  <path d="M200,100 Q218,125 200,150" fill="none" stroke="#22c1a4" stroke-width="4" stroke-linecap="round" marker-end="url(#ah)"/>
</g>
  <g>
  <rect x="40.0" y="97.0" rx="9" ry="9" width="90.6" height="22" fill="#eef1f5" stroke="#dde2ea" stroke-width="1.5"/>
  <text x="85.3" y="113.0" font-family="ui-sans-serif, system-ui, -apple-system, Segoe UI, Roboto, Arial" font-size="12.5" fill="#586073" text-anchor="middle">Elbows down</text>
</g>
  <g>
  <rect x="250.0" y="157.0" rx="9" ry="9" width="97.2" height="22" fill="#eef1f5" stroke="#dde2ea" stroke-width="1.5"/>
  <text x="298.6" y="173.0" font-family="ui-sans-serif, system-ui, -apple-system, Segoe UI, Roboto, Arial" font-size="12.5" fill="#586073" text-anchor="middle">Bar to chest</text>
</g>
</svg>
