<svg xmlns="http://www.w3.org/2000/svg" viewBox="0 0 400 300" role="img" aria-label="Leg Extension form diagram">
  <rect width="400" height="300" fill="#ffffff"/>
  <text x="200" y="30" font-family="ui-sans-serif, system-ui, -apple-system, Segoe UI, Roboto, Arial" font-size="17" font-weight="700" fill="#1f2430" text-anchor="middle">Leg Extension</text>
  <line x1="40" y1="268" x2="360" y2="268" stroke="#d7dce4" stroke-width="4" stroke-linecap="round"/>
  <line x1="150" y1="215" x2="250" y2="215" stroke="#c4ccd8" stroke-width="7" stroke-linecap="round"/>
  <line x1="200" y1="215" x2="200" y2="241" stroke="#c4ccd8" stroke-width="6" stroke-linecap="round"/>
  <line x1="180.0" y1="205.0" x2="183.9" y2="149.1" stroke="#aeb6c2" stroke-width="5" stroke-linecap="round" stroke-dasharray="2 7"/>
  <line x1="183.9" y1="149.1" x2="168.9" y2="123.2" stroke="#aeb6c2" stroke-width="5" stroke-linecap="round" stroke-dasharray="2 7"/>
  <line x1="168.9" y1="123.2" x2="154.9" y2="98.9" stroke="#aeb6c2" stroke-width="5" stroke-linecap="round" stroke-dasharray="2 7"/>
  <line x1="183.9" y1="149.1" x2="198.9" y2="123.2" stroke="#aeb6c2" stroke-width="5" stroke-linecap="round" stroke-dasharray="2 7"/>
  <line x1="198.9" y1="123.2" x2="212.9" y2="98.9" stroke="#aeb6c2" stroke-width="5" stroke-linecap="round" stroke-dasharray="2 7"/>
  <line x1="180.0" y1="205.0" x2="144.3" y2="218.0" stroke="#aeb6c2" stroke-width="5" stroke-linecap="round" stroke-dasharray="2 7"/>
  <line x1="144.3" y1="218.0" x2="131.3" y2="182.3" stroke="#aeb6c2" stroke-width="5" stroke-linecap="round" stroke-dasharray="2 7"/>
  <line x1="180.0" y1="205.0" x2="144.3" y2="218.0" stroke="#aeb6c2" stroke-width="5" stroke-linecap="round" stroke-dasharray="2 7"/>
  <line x1="144.3" y1="218.0" x2="131.3" y2="182.3" stroke="#aeb6c2" stroke-width="5" stroke-linecap="round" stroke-dasharray="2 7"/>
  <circle cx="185.7" cy="123.2" r="14" fill="#ffffff" stroke="#aeb6c2" stroke-width="5" stroke-dasharray="2 7"/>
  <line x1="180.0" y1="205.0" x2="183.9" y2="149.1" stroke="#22c1a4" stroke-width="6" stroke-linecap="round"/>
  <line x1="183.9" y1="149.1" x2="168.9" y2="123.2" stroke="#22c1a4" stroke-width="6" stroke-linecap="round"/>
  <line x1="168.9" y1="123.2" x2="154.9" y2="98.9" stroke="#22c1a4" stroke-width="6" stroke-linecap="round"/>
  <line x1="183.9" y1="149.1" x2="198.9" y2="123.2" stroke="#22c1a4" stroke-width="6" stroke-linecap="round"/>
  <line x1="198.9" y1="123.2" x2="212.9" y2="98.9" stroke="#22c1a4" stroke-width="6" stroke-linecap="round"/>
  <line x1="180.0" y1="205.0" x2="142.0" y2="206.3" stroke="#22c1a4" stroke-width="6" stroke-linecap="round"/>
  <line x1="142.0" y1="206.3" x2="104.0" y2="205.0" stroke="#22c1a4" stroke-width="6" stroke-linecap="round"/>
  <line x1="180.0" y1="205.0" x2="142.0" y2="206.3" stroke="#22c1a4" stroke-width="6" stroke-linecap="round"/>
  <line x1="142.0" y1="206.3" x2="104.0" y2="205.0" stroke="#22c1a4" stroke-width="6" stroke-linecap="round"/>
  <circle cx="185.7" cy="123.2" r="14" fill="#ffffff" stroke="#22c1a4" stroke-width="6"/>
  <g>
  <defs><marker id="ah" markerWidth="10" markerHeight="10" refX="6" refY="3" orient="auto"><path d="M0,0 L6,3 L0,6 Z" fill="#22c1a4"/></marker></defs>
  <path d="M220,250 Q270.5,232.5 285,215" fill="none" stroke="#22c1a4" stroke-width="4" stroke-linecap="round" marker-end="url(#ah)"/>
</g>
  <g>
  <rect x="40.0" y="137.0" rx="9" ry="9" width="103.8" height="22" fill="#eef1f5" stroke="#dde2ea" stroke-width="1.5"/>
  <text x="91.9" y="153.0" font-family="ui-sans-serif, system-ui, -apple-system, Segoe UI, Roboto, Arial" font-size="12.5" fill="#586073" text-anchor="middle">Squeeze quads</text>
</g>
  <g>
  <rect x="250.0" y="237.0" rx="9" ry="9" width="57.6" height="22" fill="#eef1f5" stroke="#dde2ea" stroke-width="1.5"/>
  <text x="278.8" y="253.0" font-family="ui-sans-serif, system-ui, -apple-system, Segoe UI, Roboto, Arial" font-size="12.5" fill="#586073" text-anchor="middle">Extend</text>
</g>
</svg>
