<svg xmlns="http://www.w3.org/2000/svg" viewBox="0 0 400 300" role="img" aria-label="Overhead Extension form diagram">
  <rect width="400" height="300" fill="#ffffff"/>
  <text x="200" y="30" font-family="ui-sans-serif, system-ui, -apple-system, Segoe UI, Roboto, Arial" font-size="17" font-weight="700" fill="#1f2430" text-anchor="middle">Overhead Extension</text>
  <line x1="40" y1="268" x2="360" y2="268" stroke="#d7dce4" stroke-width="4" stroke-linecap="round"/>
  
  <line x1="200.0" y1="196.0" x2="205.9" y2="140.3" stroke="#aeb6c2" stroke-width="5" stroke-linecap="round" stroke-dasharray="2 7"/>
  <line x1="205.9" y1="140.3" x2="212.1" y2="111.0" stroke="#aeb6c2" stroke-width="5" stroke-linecap="round" stroke-dasharray="2 7"/>
  <line x1="212.1" y1="111.0" x2="235.0" y2="94.9" stroke="#aeb6c2" stroke-width="5" stroke-linecap="round" stroke-dasharray="2 7"/>
  <line x1="205.9" y1="140.3" x2="210.0" y2="110.6" stroke="#aeb6c2" stroke-width="5" stroke-linecap="round" stroke-dasharray="2 7"/>
  <line x1="210.0" y1="110.6" x2="233.0" y2="94.5" stroke="#aeb6c2" stroke-width="5" stroke-linecap="round" stroke-dasharray="2 7"/>
  <line x1="200.0" y1="196.0" x2="198.7" y2="234.0" stroke="#aeb6c2" stroke-width="5" stroke-linecap="round" stroke-dasharray="2 7"/>
  <line x1="198.7" y1="234.0" x2="197.3" y2="272.0" stroke="#aeb6c2" stroke-width="5" stroke-linecap="round" stroke-dasharray="2 7"/>
  <line x1="200.0" y1="196.0" x2="201.3" y2="234.0" stroke="#aeb6c2" stroke-width="5" stroke-linecap="round" stroke-dasharray="2 7"/>
  <line x1="201.3" y1="234.0" x2="202.7" y2="272.0" stroke="#aeb6c2" stroke-width="5" stroke-linecap="round" stroke-dasharray="2 7"/>
  <circle cx="208.6" cy="114.4" r="14" fill="#ffffff" stroke="#aeb6c2" stroke-width="5" stroke-dasharray="2 7"/>
  <line x1="200.0" y1="196.0" x2="205.9" y2="140.3" stroke="#22c1a4" stroke-width="6" stroke-linecap="round"/>
  <line x1="205.9" y1="140.3" x2="210.0" y2="110.6" stroke="#22c1a4" stroke-width="6" stroke-linecap="round"/>
  <line x1="210.0" y1="110.6" x2="213.9" y2="82.9" stroke="#22c1a4" stroke-width="6" stroke-linecap="round"/>
  <line x1="205.9" y1="140.3" x2="212.1" y2="111.0" stroke="#22c1a4" stroke-width="6" stroke-linecap="round"/>
  <line x1="212.1" y1="111.0" x2="217.9" y2="83.6" stroke="#22c1a4" stroke-width="6" stroke-linecap="round"/>
  <line x1="200.0" y1="196.0" x2="198.7" y2="234.0" stroke="#22c1a4" stroke-width="6" stroke-linecap="round"/>
  <line x1="198.7" y1="234.0" x2="197.3" y2="272.0" stroke="#22c1a4" stroke-width="6" stroke-linecap="round"/>
  <line x1="200.0" y1="196.0" x2="201.3" y2="234.0" stroke="#22c1a4" stroke-width="6" stroke-linecap="round"/>
  <line x1="201.3" y1="234.0" x2="202.7" y2="272.0" stroke="#22c1a4" stroke-width="6" stroke-linecap="round"/>
  <circle cx="208.6" cy="114.4" r="14" fill="#ffffff" stroke="#22c1a4" stroke-width="6"/>
  <circle cx="213.9" cy="82.9" r="7" fill="#22c1a4" stroke="#22c1a4" stroke-width="0"/>
  <circle cx="217.9" cy="83.6" r="7" fill="#22c1a4" stroke="#22c1a4" stroke-width="0"/>
  <g>
  <defs><marker id="ah" markerWidth="10" markerHeight="10" refX="6" refY="3" orient="auto"><path d="M0,0 L6,3 L0,6 Z" fill="#22c1a4"/></marker></defs>
  <path d="M200,150 Q220.5,125 205,100" fill="none" stroke="#22c1a4" stroke-width="4" stroke-linecap="round" marker-end="url(#ah)"/>
</g>
  <g>
  <rect x="40.0" y="107.0" rx="9" ry="9" width="97.2" height="22" fill="#eef1f5" stroke="#dde2ea" stroke-width="1.5"/>
  <text x="88.6" y="123.0" font-family="ui-sans-serif, system-ui, -apple-system, Segoe UI, Roboto, Arial" font-size="12.5" fill="#586073" text-anchor="middle">Arms by ears</text>
</g>
  <g>
  <rect x="250.0" y="83.0" rx="9" ry="9" width="77.4" height="22" fill="#eef1f5" stroke="#dde2ea" stroke-width="1.5"/>
  <text x="288.7" y="99.0" font-family="ui-sans-serif, system-ui, -apple-system, Segoe UI, Roboto, Arial" font-size="12.5" fill="#586073" text-anchor="middle">Extend up</text>
</g>
</svg>
