<svg xmlns="http://www.w3.org/2000/svg" viewBox="0 0 400 300" role="img" aria-label="Plank form diagram">
  <rect width="400" height="300" fill="#ffffff"/>
  <text x="200" y="30" font-family="ui-sans-serif, system-ui, -apple-system, Segoe UI, Roboto, Arial" font-size="17" font-weight="700" fill="#1f2430" text-anchor="middle">Plank</text>
  <line x1="40" y1="268" x2="360" y2="268" stroke="#d7dce4" stroke-width="4" stroke-linecap="round"/>
  
  <line x1="205.0" y1="215.0" x2="258.3" y2="232.3" stroke="#aeb6c2" stroke-width="5" stroke-linecap="round" stroke-dasharray="2 7"/>
  <line x1="258.3" y1="232.3" x2="243.3" y2="206.3" stroke="#aeb6c2" stroke-width="5" stroke-linecap="round" stroke-dasharray="2 7"/>
  <line x1="243.3" y1="206.3" x2="252.8" y2="180.0" stroke="#aeb6c2" stroke-width="5" stroke-linecap="round" stroke-dasharray="2 7"/>
  <line x1="258.3" y1="232.3" x2="245.6" y2="205.1" stroke="#aeb6c2" stroke-width="5" stroke-linecap="round" stroke-dasharray="2 7"/>
  <line x1="245.6" y1="205.1" x2="257.4" y2="179.7" stroke="#aeb6c2" stroke-width="5" stroke-linecap="round" stroke-dasharray="2 7"/>
  <line x1="205.0" y1="215.0" x2="169.3" y2="228.0" stroke="#aeb6c2" stroke-width="5" stroke-linecap="round" stroke-dasharray="2 7"/>
  <line x1="169.3" y1="228.0" x2="133.6" y2="241.0" stroke="#aeb6c2" stroke-width="5" stroke-linecap="round" stroke-dasharray="2 7"/>
  <line x1="205.0" y1="215.0" x2="170.3" y2="230.5" stroke="#aeb6c2" stroke-width="5" stroke-linecap="round" stroke-dasharray="2 7"/>
  <line x1="170.3" y1="230.5" x2="135.6" y2="245.9" stroke="#aeb6c2" stroke-width="5" stroke-linecap="round" stroke-dasharray="2 7"/>
  <circle cx="283.0" cy="240.3" r="14" fill="#ffffff" stroke="#aeb6c2" stroke-width="5" stroke-dasharray="2 7"/>
  <line x1="205.0" y1="215.0" x2="258.3" y2="232.3" stroke="#22c1a4" stroke-width="6" stroke-linecap="round"/>
  <line x1="258.3" y1="232.3" x2="243.3" y2="206.3" stroke="#22c1a4" stroke-width="6" stroke-linecap="round"/>
  <line x1="243.3" y1="206.3" x2="252.8" y2="180.0" stroke="#22c1a4" stroke-width="6" stroke-linecap="round"/>
  <line x1="258.3" y1="232.3" x2="245.6" y2="205.1" stroke="#22c1a4" stroke-width="6" stroke-linecap="round"/>
  <line x1="245.6" y1="205.1" x2="257.4" y2="179.7" stroke="#22c1a4" stroke-width="6" stroke-linecap="round"/>
  <line x1="205.0" y1="215.0" x2="169.3" y2="228.0" stroke="#22c1a4" stroke-width="6" stroke-linecap="round"/>
  <line x1="169.3" y1="228.0" x2="133.6" y2="241.0" stroke="#22c1a4" stroke-width="6" stroke-linecap="round"/>
  <line x1="205.0" y1="215.0" x2="170.3" y2="230.5" stroke="#22c1a4" stroke-width="6" stroke-linecap="round"/>
  <line x1="170.3" y1="230.5" x2="135.6" y2="245.9" stroke="#22c1a4" stroke-width="6" stroke-linecap="round"/>
  <circle cx="283.0" cy="240.3" r="14" fill="#ffffff" stroke="#22c1a4" stroke-width="6"/>
  <g>
  <rect x="40.0" y="137.0" rx="9" ry="9" width="103.8" height="22" fill="#eef1f5" stroke="#dde2ea" stroke-width="1.5"/>
  <text x="91.9" y="153.0" font-family="ui-sans-serif, system-ui, -apple-system, Segoe UI, Roboto, Arial" font-size="12.5" fill="#586073" text-anchor="middle">Straight line</text>
</g>
  <g>
  <rect x="250.0" y="237.0" rx="9" ry="9" width="77.4" height="22" fill="#eef1f5" stroke="#dde2ea" stroke-width="1.5"/>
  <text x="288.7" y="253.0" font-family="ui-sans-serif, system-ui, -apple-system, Segoe UI, Roboto, Arial" font-size="12.5" fill="#586073" text-anchor="middle">Brace abs</text>
</g>
</svg>
