<svg xmlns="http://www.w3.org/2000/svg" viewBox="0 0 400 300" role="img" aria-label="Romanian Deadlift form diagram">
  <rect width="400" height="300" fill="#ffffff"/>
  <text x="200" y="30" font-family="ui-sans-serif, system-ui, -apple-system, Segoe UI, Roboto, Arial" font-size="17" font-weight="700" fill="#1f2430" text-anchor="middle">Romanian Deadlift</text>
  <line x1="40" y1="268" x2="360" y2="268" stroke="#d7dce4" stroke-width="4" stroke-linecap="round"/>
  
  <line x1="200.0" y1="190.0" x2="203.9" y2="134.1" stroke="#aeb6c2" stroke-width="5" stroke-linecap="round" stroke-dasharray="2 7"/>
  <line x1="203.9" y1="134.1" x2="203.9" y2="104.1" stroke="#aeb6c2" stroke-width="5" stroke-linecap="round" stroke-dasharray="2 7"/>
  <line x1="203.9" y1="104.1" x2="203.9" y2="76.1" stroke="#aeb6c2" stroke-width="5" stroke-linecap="round" stroke-dasharray="2 7"/>
  <line x1="203.9" y1="134.1" x2="207.0" y2="104.3" stroke="#aeb6c2" stroke-width="5" stroke-linecap="round" stroke-dasharray="2 7"/>
  <line x1="207.0" y1="104.3" x2="210.0" y2="76.5" stroke="#aeb6c2" stroke-width="5" stroke-linecap="round" stroke-dasharray="2 7"/>
  <line x1="200.0" y1="190.0" x2="197.3" y2="227.9" stroke="#aeb6c2" stroke-width="5" stroke-linecap="round" stroke-dasharray="2 7"/>
  <line x1="197.3" y1="227.9" x2="194.7" y2="265.8" stroke="#aeb6c2" stroke-width="5" stroke-linecap="round" stroke-dasharray="2 7"/>
  <line x1="200.0" y1="190.0" x2="202.7" y2="227.9" stroke="#aeb6c2" stroke-width="5" stroke-linecap="round" stroke-dasharray="2 7"/>
  <line x1="202.7" y1="227.9" x2="205.3" y2="265.8" stroke="#aeb6c2" stroke-width="5" stroke-linecap="round" stroke-dasharray="2 7"/>
  <circle cx="205.7" cy="108.2" r="14" fill="#ffffff" stroke="#aeb6c2" stroke-width="5" stroke-dasharray="2 7"/>
  <line x1="225.0" y1="195.0" x2="278.3" y2="177.7" stroke="#22c1a4" stroke-width="6" stroke-linecap="round"/>
  <line x1="278.3" y1="177.7" x2="288.5" y2="149.5" stroke="#22c1a4" stroke-width="6" stroke-linecap="round"/>
  <line x1="288.5" y1="149.5" x2="298.1" y2="123.2" stroke="#22c1a4" stroke-width="6" stroke-linecap="round"/>
  <line x1="278.3" y1="177.7" x2="290.9" y2="150.5" stroke="#22c1a4" stroke-width="6" stroke-linecap="round"/>
  <line x1="290.9" y1="150.5" x2="302.8" y2="125.1" stroke="#22c1a4" stroke-width="6" stroke-linecap="round"/>
  <line x1="225.0" y1="195.0" x2="213.3" y2="231.1" stroke="#22c1a4" stroke-width="6" stroke-linecap="round"/>
  <line x1="213.3" y1="231.1" x2="209.3" y2="268.9" stroke="#22c1a4" stroke-width="6" stroke-linecap="round"/>
  <line x1="225.0" y1="195.0" x2="217.1" y2="232.2" stroke="#22c1a4" stroke-width="6" stroke-linecap="round"/>
  <line x1="217.1" y1="232.2" x2="217.1" y2="270.2" stroke="#22c1a4" stroke-width="6" stroke-linecap="round"/>
  <circle cx="303.0" cy="169.7" r="14" fill="#ffffff" stroke="#22c1a4" stroke-width="6"/>
  <circle cx="298.1" cy="123.2" r="7" fill="#22c1a4" stroke="#22c1a4" stroke-width="0"/>
  <circle cx="302.8" cy="125.1" r="7" fill="#22c1a4" stroke="#22c1a4" stroke-width="0"/>
  <g>
  <defs><marker id="ah" markerWidth="10" markerHeight="10" refX="6" refY="3" orient="auto"><path d="M0,0 L6,3 L0,6 Z" fill="#22c1a4"/></marker></defs>
  <path d="M150,150 Q220.5,162.5 255,175" fill="none" stroke="#22c1a4" stroke-width="4" stroke-linecap="round" marker-end="url(#ah)"/>
</g>
  <g>
  <rect x="40.0" y="117.0" rx="9" ry="9" width="103.8" height="22" fill="#eef1f5" stroke="#dde2ea" stroke-width="1.5"/>
  <text x="91.9" y="133.0" font-family="ui-sans-serif, system-ui, -apple-system, Segoe UI, Roboto, Arial" font-size="12.5" fill="#586073" text-anchor="middle">Neutral spine</text>
</g>
  <g>
  <rect x="250.0" y="222.0" rx="9" ry="9" width="77.4" height="22" fill="#eef1f5" stroke="#dde2ea" stroke-width="1.5"/>
  <text x="288.7" y="238.0" font-family="ui-sans-serif, system-ui, -apple-system, Segoe UI, Roboto, Arial" font-size="12.5" fill="#586073" text-anchor="middle">Hips back</text>
</g>
</svg>
