<svg xmlns="http://www.w3.org/2000/svg" viewBox="0 0 400 300" role="img" aria-label="Russian Twist form diagram">
  <rect width="400" height="300" fill="#ffffff"/>
  <text x="200" y="30" font-family="ui-sans-serif, system-ui, -apple-system, Segoe UI, Roboto, Arial" font-size="17" font-weight="700" fill="#1f2430" text-anchor="middle">Russian Twist</text>
  <line x1="40" y1="268" x2="360" y2="268" stroke="#d7dce4" stroke-width="4" stroke-linecap="round"/>
  
  <line x1="200.0" y1="230.0" x2="168.7" y2="183.6" stroke="#aeb6c2" stroke-width="5" stroke-linecap="round" stroke-dasharray="2 7"/>
  <line x1="168.7" y1="183.6" x2="153.7" y2="157.6" stroke="#aeb6c2" stroke-width="5" stroke-linecap="round" stroke-dasharray="2 7"/>
  <line x1="153.7" y1="157.6" x2="139.7" y2="133.3" stroke="#aeb6c2" stroke-width="5" stroke-linecap="round" stroke-dasharray="2 7"/>
  <line x1="168.7" y1="183.6" x2="158.4" y2="155.4" stroke="#aeb6c2" stroke-width="5" stroke-linecap="round" stroke-dasharray="2 7"/>
  <line x1="158.4" y1="155.4" x2="148.8" y2="129.1" stroke="#aeb6c2" stroke-width="5" stroke-linecap="round" stroke-dasharray="2 7"/>
  <line x1="200.0" y1="230.0" x2="168.9" y2="208.2" stroke="#aeb6c2" stroke-width="5" stroke-linecap="round" stroke-dasharray="2 7"/>
  <line x1="168.9" y1="208.2" x2="133.2" y2="221.2" stroke="#aeb6c2" stroke-width="5" stroke-linecap="round" stroke-dasharray="2 7"/>
  <line x1="200.0" y1="230.0" x2="231.1" y2="208.2" stroke="#aeb6c2" stroke-width="5" stroke-linecap="round" stroke-dasharray="2 7"/>
  <line x1="231.1" y1="208.2" x2="195.4" y2="221.2" stroke="#aeb6c2" stroke-width="5" stroke-linecap="round" stroke-dasharray="2 7"/>
  <circle cx="154.1" cy="162.0" r="14" fill="#ffffff" stroke="#aeb6c2" stroke-width="5" stroke-dasharray="2 7"/>
  <line x1="200.0" y1="230.0" x2="168.7" y2="183.6" stroke="#22c1a4" stroke-width="6" stroke-linecap="round"/>
  <line x1="168.7" y1="183.6" x2="188.0" y2="160.6" stroke="#22c1a4" stroke-width="6" stroke-linecap="round"/>
  <line x1="188.0" y1="160.6" x2="206.0" y2="139.1" stroke="#22c1a4" stroke-width="6" stroke-linecap="round"/>
  <line x1="168.7" y1="183.6" x2="191.7" y2="164.3" stroke="#22c1a4" stroke-width="6" stroke-linecap="round"/>
  <line x1="191.7" y1="164.3" x2="213.1" y2="146.3" stroke="#22c1a4" stroke-width="6" stroke-linecap="round"/>
  <line x1="200.0" y1="230.0" x2="168.9" y2="208.2" stroke="#22c1a4" stroke-width="6" stroke-linecap="round"/>
  <line x1="168.9" y1="208.2" x2="133.2" y2="221.2" stroke="#22c1a4" stroke-width="6" stroke-linecap="round"/>
  <line x1="200.0" y1="230.0" x2="231.1" y2="208.2" stroke="#22c1a4" stroke-width="6" stroke-linecap="round"/>
  <line x1="231.1" y1="208.2" x2="195.4" y2="221.2" stroke="#22c1a4" stroke-width="6" stroke-linecap="round"/>
  <circle cx="154.1" cy="162.0" r="14" fill="#ffffff" stroke="#22c1a4" stroke-width="6"/>
  <circle cx="206.0" cy="139.1" r="7" fill="#22c1a4" stroke="#22c1a4" stroke-width="0"/>
  <circle cx="213.1" cy="146.3" r="7" fill="#22c1a4" stroke="#22c1a4" stroke-width="0"/>
  <g>
  <defs><marker id="ah" markerWidth="10" markerHeight="10" refX="6" refY="3" orient="auto"><path d="M0,0 L6,3 L0,6 Z" fill="#22c1a4"/></marker></defs>
  <path d="M150,170 Q218,177.5 250,185" fill="none" stroke="#22c1a4" stroke-width="4" stroke-linecap="round" marker-end="url(#ah)"/>
</g>
  <g>
  <rect x="40.0" y="117.0" rx="9" ry="9" width="84.0" height="22" fill="#eef1f5" stroke="#dde2ea" stroke-width="1.5"/>
  <text x="82.0" y="133.0" font-family="ui-sans-serif, system-ui, -apple-system, Segoe UI, Roboto, Arial" font-size="12.5" fill="#586073" text-anchor="middle">Chest tall</text>
</g>
  <g>
  <rect x="255.0" y="237.0" rx="9" ry="9" width="97.2" height="22" fill="#eef1f5" stroke="#dde2ea" stroke-width="1.5"/>
  <text x="303.6" y="253.0" font-family="ui-sans-serif, system-ui, -apple-system, Segoe UI, Roboto, Arial" font-size="12.5" fill="#586073" text-anchor="middle">Rotate torso</text>
</g>
</svg>
