<svg xmlns="http://www.w3.org/2000/svg" viewBox="0 0 400 300" role="img" aria-label="Overhead DB Press form diagram">
  <rect width="400" height="300" fill="#ffffff"/>
  <text x="200" y="30" font-family="ui-sans-serif, system-ui, -apple-system, Segoe UI, Roboto, Arial" font-size="17" font-weight="700" fill="#1f2430" text-anchor="middle">Overhead DB Press</text>
  <line x1="40" y1="268" x2="360" y2="268" stroke="#d7dce4" stroke-width="4" stroke-linecap="round"/>
  <line x1="160" y1="250" x2="240" y2="250" stroke="#c4ccd8" stroke-width="7" stroke-linecap="round"/>
  <line x1="200" y1="250" x2="200" y2="276" stroke="#c4ccd8" stroke-width="6" stroke-linecap="round"/>
  <line x1="200.0" y1="200.0" x2="202.0" y2="144.0" stroke="#aeb6c2" stroke-width="5" stroke-linecap="round" stroke-dasharray="2 7"/>
  <line x1="202.0" y1="144.0" x2="187.0" y2="118.1" stroke="#aeb6c2" stroke-width="5" stroke-linecap="round" stroke-dasharray="2 7"/>
  <line x1="187.0" y1="118.1" x2="196.5" y2="91.7" stroke="#aeb6c2" stroke-width="5" stroke-linecap="round" stroke-dasharray="2 7"/>
  <line x1="202.0" y1="144.0" x2="217.0" y2="118.1" stroke="#aeb6c2" stroke-width="5" stroke-linecap="round" stroke-dasharray="2 7"/>
  <line x1="217.0" y1="118.1" x2="207.4" y2="91.7" stroke="#aeb6c2" stroke-width="5" stroke-linecap="round" stroke-dasharray="2 7"/>
  <line x1="200.0" y1="200.0" x2="168.9" y2="221.8" stroke="#aeb6c2" stroke-width="5" stroke-linecap="round" stroke-dasharray="2 7"/>
  <line x1="168.9" y1="221.8" x2="136.0" y2="202.8" stroke="#aeb6c2" stroke-width="5" stroke-linecap="round" stroke-dasharray="2 7"/>
  <line x1="200.0" y1="200.0" x2="231.1" y2="221.8" stroke="#aeb6c2" stroke-width="5" stroke-linecap="round" stroke-dasharray="2 7"/>
  <line x1="231.1" y1="221.8" x2="198.2" y2="202.8" stroke="#aeb6c2" stroke-width="5" stroke-linecap="round" stroke-dasharray="2 7"/>
  <circle cx="202.9" cy="118.0" r="14" fill="#ffffff" stroke="#aeb6c2" stroke-width="5" stroke-dasharray="2 7"/>
  <line x1="200.0" y1="200.0" x2="202.0" y2="144.0" stroke="#22c1a4" stroke-width="6" stroke-linecap="round"/>
  <line x1="202.0" y1="144.0" x2="200.9" y2="114.1" stroke="#22c1a4" stroke-width="6" stroke-linecap="round"/>
  <line x1="200.9" y1="114.1" x2="199.9" y2="86.1" stroke="#22c1a4" stroke-width="6" stroke-linecap="round"/>
  <line x1="202.0" y1="144.0" x2="203.0" y2="114.1" stroke="#22c1a4" stroke-width="6" stroke-linecap="round"/>
  <line x1="203.0" y1="114.1" x2="204.0" y2="86.1" stroke="#22c1a4" stroke-width="6" stroke-linecap="round"/>
  <line x1="200.0" y1="200.0" x2="168.9" y2="221.8" stroke="#22c1a4" stroke-width="6" stroke-linecap="round"/>
  <line x1="168.9" y1="221.8" x2="136.0" y2="202.8" stroke="#22c1a4" stroke-width="6" stroke-linecap="round"/>
  <line x1="200.0" y1="200.0" x2="231.1" y2="221.8" stroke="#22c1a4" stroke-width="6" stroke-linecap="round"/>
  <line x1="231.1" y1="221.8" x2="198.2" y2="202.8" stroke="#22c1a4" stroke-width="6" stroke-linecap="round"/>
  <circle cx="202.9" cy="118.0" r="14" fill="#ffffff" stroke="#22c1a4" stroke-width="6"/>
  <circle cx="199.9" cy="86.1" r="7" fill="#22c1a4" stroke="#22c1a4" stroke-width="0"/>
  <circle cx="204.0" cy="86.1" r="7" fill="#22c1a4" stroke="#22c1a4" stroke-width="0"/>
  <g>
  <defs><marker id="ah" markerWidth="10" markerHeight="10" refX="6" refY="3" orient="auto"><path d="M0,0 L6,3 L0,6 Z" fill="#22c1a4"/></marker></defs>
  <path d="M228,150 Q237,123 210,96" fill="none" stroke="#22c1a4" stroke-width="4" stroke-linecap="round" marker-end="url(#ah)"/>
</g>
  <g>
  <rect x="40.0" y="137.0" rx="9" ry="9" width="77.4" height="22" fill="#eef1f5" stroke="#dde2ea" stroke-width="1.5"/>
  <text x="78.7" y="153.0" font-family="ui-sans-serif, system-ui, -apple-system, Segoe UI, Roboto, Arial" font-size="12.5" fill="#586073" text-anchor="middle">Ribs down</text>
</g>
  <g>
  <rect x="250.0" y="79.0" rx="9" ry="9" width="70.8" height="22" fill="#eef1f5" stroke="#dde2ea" stroke-width="1.5"/>
  <text x="285.4" y="95.0" font-family="ui-sans-serif, system-ui, -apple-system, Segoe UI, Roboto, Arial" font-size="12.5" fill="#586073" text-anchor="middle">Lock out</text>
</g>
</svg>
