<svg xmlns="http://www.w3.org/2000/svg" viewBox="0 0 400 300" role="img" aria-label="Side Plank form diagram">
  <rect width="400" height="300" fill="#ffffff"/>
  <text x="200" y="30" font-family="ui-sans-serif, system-ui, -apple-system, Segoe UI, Roboto, Arial" font-size="17" font-weight="700" fill="#1f2430" text-anchor="middle">Side Plank</text>
  <line x1="40" y1="268" x2="360" y2="268" stroke="#d7dce4" stroke-width="4" stroke-linecap="round"/>
  
  <line x1="210.0" y1="210.0" x2="262.6" y2="229.2" stroke="#aeb6c2" stroke-width="5" stroke-linecap="round" stroke-dasharray="2 7"/>
  <line x1="262.6" y1="229.2" x2="265.2" y2="199.3" stroke="#aeb6c2" stroke-width="5" stroke-linecap="round" stroke-dasharray="2 7"/>
  <line x1="265.2" y1="199.3" x2="289.5" y2="185.3" stroke="#aeb6c2" stroke-width="5" stroke-linecap="round" stroke-dasharray="2 7"/>
  <line x1="262.6" y1="229.2" x2="265.2" y2="199.3" stroke="#aeb6c2" stroke-width="5" stroke-linecap="round" stroke-dasharray="2 7"/>
  <line x1="265.2" y1="199.3" x2="289.5" y2="185.3" stroke="#aeb6c2" stroke-width="5" stroke-linecap="round" stroke-dasharray="2 7"/>
  <line x1="210.0" y1="210.0" x2="173.9" y2="221.7" stroke="#aeb6c2" stroke-width="5" stroke-linecap="round" stroke-dasharray="2 7"/>
  <line x1="173.9" y1="221.7" x2="137.7" y2="233.5" stroke="#aeb6c2" stroke-width="5" stroke-linecap="round" stroke-dasharray="2 7"/>
  <line x1="210.0" y1="210.0" x2="173.9" y2="221.7" stroke="#aeb6c2" stroke-width="5" stroke-linecap="round" stroke-dasharray="2 7"/>
  <line x1="173.9" y1="221.7" x2="137.7" y2="233.5" stroke="#aeb6c2" stroke-width="5" stroke-linecap="round" stroke-dasharray="2 7"/>
  <circle cx="287.1" cy="238.0" r="14" fill="#ffffff" stroke="#aeb6c2" stroke-width="5" stroke-dasharray="2 7"/>
  <line x1="210.0" y1="210.0" x2="262.6" y2="229.2" stroke="#22c1a4" stroke-width="6" stroke-linecap="round"/>
  <line x1="262.6" y1="229.2" x2="265.2" y2="199.3" stroke="#22c1a4" stroke-width="6" stroke-linecap="round"/>
  <line x1="265.2" y1="199.3" x2="289.5" y2="185.3" stroke="#22c1a4" stroke-width="6" stroke-linecap="round"/>
  <line x1="262.6" y1="229.2" x2="265.2" y2="199.3" stroke="#22c1a4" stroke-width="6" stroke-linecap="round"/>
  <line x1="265.2" y1="199.3" x2="289.5" y2="185.3" stroke="#22c1a4" stroke-width="6" stroke-linecap="round"/>
  <line x1="210.0" y1="210.0" x2="173.9" y2="221.7" stroke="#22c1a4" stroke-width="6" stroke-linecap="round"/>
  <line x1="173.9" y1="221.7" x2="137.7" y2="233.5" stroke="#22c1a4" stroke-width="6" stroke-linecap="round"/>
  <line x1="210.0" y1="210.0" x2="173.9" y2="221.7" stroke="#22c1a4" stroke-width="6" stroke-linecap="round"/>
  <line x1="173.9" y1="221.7" x2="137.7" y2="233.5" stroke="#22c1a4" stroke-width="6" stroke-linecap="round"/>
  <circle cx="287.1" cy="238.0" r="14" fill="#ffffff" stroke="#22c1a4" stroke-width="6"/>
  <g>
  <defs><marker id="ah" markerWidth="10" markerHeight="10" refX="6" refY="3" orient="auto"><path d="M0,0 L6,3 L0,6 Z" fill="#22c1a4"/></marker></defs>
  <path d="M210,245 Q228,230 210,215" fill="none" stroke="#22c1a4" stroke-width="4" stroke-linecap="round" marker-end="url(#ah)"/>
</g>
  <g>
  <rect x="40.0" y="137.0" rx="9" ry="9" width="84.0" height="22" fill="#eef1f5" stroke="#dde2ea" stroke-width="1.5"/>
  <text x="82.0" y="153.0" font-family="ui-sans-serif, system-ui, -apple-system, Segoe UI, Roboto, Arial" font-size="12.5" fill="#586073" text-anchor="middle">Stack hips</text>
</g>
  <g>
  <rect x="250.0" y="242.0" rx="9" ry="9" width="77.4" height="22" fill="#eef1f5" stroke="#dde2ea" stroke-width="1.5"/>
  <text x="288.7" y="258.0" font-family="ui-sans-serif, system-ui, -apple-system, Segoe UI, Roboto, Arial" font-size="12.5" fill="#586073" text-anchor="middle">Lift hips</text>
</g>
</svg>
