<svg xmlns="http://www.w3.org/2000/svg" viewBox="0 0 400 300" role="img" aria-label="Walking Lunges form diagram">
  <rect width="400" height="300" fill="#ffffff"/>
  <text x="200" y="30" font-family="ui-sans-serif, system-ui, -apple-system, Segoe UI, Roboto, Arial" font-size="17" font-weight="700" fill="#1f2430" text-anchor="middle">Walking Lunges</text>
  <line x1="40" y1="268" x2="360" y2="268" stroke="#d7dce4" stroke-width="4" stroke-linecap="round"/>
  
  <line x1="200.0" y1="196.0" x2="200.0" y2="140.0" stroke="#aeb6c2" stroke-width="5" stroke-linecap="round" stroke-dasharray="2 7"/>
  <line x1="200.0" y1="140.0" x2="197.9" y2="110.1" stroke="#aeb6c2" stroke-width="5" stroke-linecap="round" stroke-dasharray="2 7"/>
  <line x1="197.9" y1="110.1" x2="196.0" y2="82.1" stroke="#aeb6c2" stroke-width="5" stroke-linecap="round" stroke-dasharray="2 7"/>
  <line x1="200.0" y1="140.0" x2="202.1" y2="110.1" stroke="#aeb6c2" stroke-width="5" stroke-linecap="round" stroke-dasharray="2 7"/>
  <line x1="202.1" y1="110.1" x2="204.0" y2="82.1" stroke="#aeb6c2" stroke-width="5" stroke-linecap="round" stroke-dasharray="2 7"/>
  <line x1="200.0" y1="196.0" x2="192.1" y2="233.2" stroke="#aeb6c2" stroke-width="5" stroke-linecap="round" stroke-dasharray="2 7"/>
  <line x1="192.1" y1="233.2" x2="184.2" y2="270.3" stroke="#aeb6c2" stroke-width="5" stroke-linecap="round" stroke-dasharray="2 7"/>
  <line x1="200.0" y1="196.0" x2="207.9" y2="233.2" stroke="#aeb6c2" stroke-width="5" stroke-linecap="round" stroke-dasharray="2 7"/>
  <line x1="207.9" y1="233.2" x2="215.8" y2="270.3" stroke="#aeb6c2" stroke-width="5" stroke-linecap="round" stroke-dasharray="2 7"/>
  <circle cx="200.0" cy="114.0" r="14" fill="#ffffff" stroke="#aeb6c2" stroke-width="5" stroke-dasharray="2 7"/>
  <line x1="200.0" y1="215.0" x2="203.9" y2="159.1" stroke="#22c1a4" stroke-width="6" stroke-linecap="round"/>
  <line x1="203.9" y1="159.1" x2="201.8" y2="129.2" stroke="#22c1a4" stroke-width="6" stroke-linecap="round"/>
  <line x1="201.8" y1="129.2" x2="199.9" y2="101.3" stroke="#22c1a4" stroke-width="6" stroke-linecap="round"/>
  <line x1="203.9" y1="159.1" x2="206.0" y2="129.2" stroke="#22c1a4" stroke-width="6" stroke-linecap="round"/>
  <line x1="206.0" y1="129.2" x2="208.0" y2="101.3" stroke="#22c1a4" stroke-width="6" stroke-linecap="round"/>
  <line x1="200.0" y1="215.0" x2="175.6" y2="244.1" stroke="#22c1a4" stroke-width="6" stroke-linecap="round"/>
  <line x1="175.6" y1="244.1" x2="172.3" y2="282.0" stroke="#22c1a4" stroke-width="6" stroke-linecap="round"/>
  <line x1="200.0" y1="215.0" x2="225.4" y2="243.2" stroke="#22c1a4" stroke-width="6" stroke-linecap="round"/>
  <line x1="225.4" y1="243.2" x2="230.7" y2="280.9" stroke="#22c1a4" stroke-width="6" stroke-linecap="round"/>
  <circle cx="205.7" cy="133.2" r="14" fill="#ffffff" stroke="#22c1a4" stroke-width="6"/>
  <g>
  <defs><marker id="ah" markerWidth="10" markerHeight="10" refX="6" refY="3" orient="auto"><path d="M0,0 L6,3 L0,6 Z" fill="#22c1a4"/></marker></defs>
  <path d="M200,150 Q218,175 200,200" fill="none" stroke="#22c1a4" stroke-width="4" stroke-linecap="round" marker-end="url(#ah)"/>
</g>
  <g>
  <rect x="40.0" y="137.0" rx="9" ry="9" width="103.8" height="22" fill="#eef1f5" stroke="#dde2ea" stroke-width="1.5"/>
  <text x="91.9" y="153.0" font-family="ui-sans-serif, system-ui, -apple-system, Segoe UI, Roboto, Arial" font-size="12.5" fill="#586073" text-anchor="middle">Torso upright</text>
</g>
  <g>
  <rect x="250.0" y="237.0" rx="9" ry="9" width="77.4" height="22" fill="#eef1f5" stroke="#dde2ea" stroke-width="1.5"/>
  <text x="288.7" y="253.0" font-family="ui-sans-serif, system-ui, -apple-system, Segoe UI, Roboto, Arial" font-size="12.5" fill="#586073" text-anchor="middle">Knee down</text>
</g>
</svg>
